<?xml version="1.0" encoding="UTF-8"?>
<svg id="Livello_1" xmlns="http://www.w3.org/2000/svg" version="1.1" viewBox="0 0 1024 1024">
  <!-- Generator: Adobe Illustrator 29.8.2, SVG Export Plug-In . SVG Version: 2.1.1 Build 3)  -->
  <defs>
    <style>
      .st0 {
        stroke: #000;
        stroke-miterlimit: 10;
        stroke-width: 4px;
      }
    </style>
  </defs>
  <path class="st0" d="M480.22,343.97v55.15h-4.56s3.32-30.69-23.64-47.69c0,0-12.03-12.44-48.93-11.2,0,0-38.98,5.39-40.22,39.81,0,0-2.07,20.32,12.86,32.35,0,0,15.34,17.83,30.69,26.54,0,0,44.37,27.37,50.59,32.35,0,0,0,0,.02.02,14.65,14.09,26.96,30.42,36.5,48.37,22.76,42.84,67.34,127.4,67.78,133.07l103.09-199.15h33.39s-15.23,0-17.57,16.4l2.91,142.49c.15,7.43.1,14.85-.03,22.28-.23,12.61,2.06,44.89,25.98,89,0,0,9,20.07,49.15,29.07,0,0-29.08,4.04-57.32-20.9-14.97-13.22-25.14-31-29.64-50.45-3.8-16.41-8.57-41.12-8.57-61.55l-3.46-146.05-104.52,210.43-85.77-165c-3.35-6.43-7.75-12.25-13.04-17.21-.16-.15-.31-.29-.47-.44-18.22-17.05-38.42-31.84-60-44.37-8.66-5.03-19.84-12.44-29.69-21.85-18.52-17.7-23.77-45.57-11.67-68.16,3.63-6.78,8.91-13.31,16.53-18.68,0,0,37.38-24.23,87.22-2.08,0,0,11.61,5.3,22.42-2.54Z"/>
  <path class="st0" d="M464.04,523.02l4.85,6.23-11.08,152.28s1.38,11.77,18.69,13.84v2.13h-57.78v-2.68h9.82s17.67-7.14,17.85-22.31l8.11-68.54,9.55-80.95Z"/>
  <path class="st0" d="M347.29,566.85l-.04,60.89s3.16-15.81,19.76-11.07c0,0,20.31,11.91,35.55,12.98.95.07,1.88.03,2.79.07,16.23.62,35.18,3.56,54.55-8.7,0,0,32.02-18.18,30.44-28.86l-3.16-7.51s-5.52,23.23-33.98,35.1c-8.07,3.36-16.72,5.11-25.46,5.44-12.57.47-34.85-.06-46.5-8.52,0,0-22.85-11.1-33.96-49.83Z"/>
</svg>